<svg xmlns="http://www.w3.org/2000/svg" width="25.022" height="25.055" viewBox="0 0 25.022 25.055">
  <g id="art-category-icon" transform="translate(-0.229 -0.293)">
    <path id="Union" d="M9.789,3.5A9.625,9.625,0,0,0,2.752,6.023,9.626,9.626,0,0,0,.229,13.06,9.625,9.625,0,0,0,2.752,20.1a9.625,9.625,0,0,0,7.037,2.524A9.625,9.625,0,0,0,16.826,20.1,9.625,9.625,0,0,0,19.35,13.06a9.625,9.625,0,0,0-2.524-7.037A9.626,9.626,0,0,0,9.789,3.5Z" transform="translate(0 2.728)" fill="#e8ffec" fill-rule="evenodd"/>
    <path id="Union_2" d="M19.579.293a.925.925,0,0,0-.925.925V8.337a.925.925,0,0,0,.925.925H20.8v3.491a2.545,2.545,0,0,1-1.679,2.393L14.04,16.982a1.157,1.157,0,0,0,.787,2.175L19.9,17.322a4.858,4.858,0,0,0,3.206-4.568V9.262h1.216a.925.925,0,0,0,.925-.925V1.218a.925.925,0,0,0-.925-.925ZM10.01,17.881A1.619,1.619,0,0,1,8.39,16.261v-.925a1.619,1.619,0,0,1,3.239,0v.925A1.619,1.619,0,0,1,10.01,17.881ZM2.542,15.788a7.345,7.345,0,0,1,1.846-5.4,7.345,7.345,0,0,1,5.4-1.846c3.554,0,5.709,1.41,6.66,3.792a1.157,1.157,0,0,0,2.149-.857C17.211,8,14.04,6.227,9.789,6.227A9.625,9.625,0,0,0,2.752,8.751,9.626,9.626,0,0,0,.229,15.788a9.625,9.625,0,0,0,2.524,7.037,9.625,9.625,0,0,0,7.037,2.524,9.775,9.775,0,0,0,6.8-2.3,1.157,1.157,0,0,0-1.565-1.7,7.494,7.494,0,0,1-5.238,1.69,7.345,7.345,0,0,1-5.4-1.846,7.345,7.345,0,0,1-1.846-5.4Z" transform="translate(0 0)" fill="#299800" fill-rule="evenodd"/>
  </g>
</svg>
