<svg xmlns="http://www.w3.org/2000/svg" width="25.056" height="25.055" viewBox="0 0 25.056 25.055">
  <g id="concert-category-icon" transform="translate(0 0)">
    <path id="Vector" d="M12.342,8.61A41.081,41.081,0,0,1,16.294,13.6a1.833,1.833,0,0,1-.551,2.631C11.436,18.812,6.7,20.647,2.221,20.446A1.642,1.642,0,0,1,.651,18.9C.39,14.413,2.16,9.655,4.683,5.311A1.83,1.83,0,0,1,7.3,4.724,41.048,41.048,0,0,1,12.342,8.61Z" transform="translate(0.494 3.476)" fill="#fff5de"/>
    <path id="Union" d="M12.275.067a1.342,1.342,0,0,0-.86,1.692,5.017,5.017,0,0,1-.138,3.483,1.342,1.342,0,1,0,2.479,1.032A7.7,7.7,0,0,0,13.967.927a1.342,1.342,0,0,0-1.692-.86Zm4.119,5.4A1.342,1.342,0,0,1,19.053,5.1a4.9,4.9,0,0,1-.768,3.38,1.342,1.342,0,0,1-2.238-1.483,2.214,2.214,0,0,0,.347-1.527ZM4.209,8.225a2.949,2.949,0,0,1,4.217-.95,41.993,41.993,0,0,1,5.2,4.016A42.026,42.026,0,0,1,17.7,16.434a2.951,2.951,0,0,1-.893,4.23C12.425,23.3,7.467,25.255,2.665,25.04a2.761,2.761,0,0,1-2.637-2.6C-.252,17.636,1.64,12.65,4.209,8.225Zm2.96.9a.712.712,0,0,0-1.026.223c-2.476,4.264-4.125,8.794-3.883,12.959a.523.523,0,0,0,.5.5c4.165.186,8.669-1.524,12.9-4.059a.714.714,0,0,0,.209-1.031,40.158,40.158,0,0,0-3.82-4.832A40.124,40.124,0,0,0,7.17,9.125Zm12.88,5.113a2.14,2.14,0,0,1,1.516.218,1.342,1.342,0,1,0,1.308-2.344,4.824,4.824,0,0,0-3.419-.492,1.342,1.342,0,1,0,.595,2.618ZM22.4,8.387a1.342,1.342,0,0,1,0-2.685h1.313a1.342,1.342,0,1,1,0,2.685H22.4Z" transform="translate(0 0)" fill="#f0b900" fill-rule="evenodd"/>
  </g>
</svg>
