<svg xmlns="http://www.w3.org/2000/svg" width="21.584" height="25.082" viewBox="0 0 21.584 25.082">
  <g id="education-category-icon" transform="translate(-1)">
    <path id="Subtract" d="M1.848,21.362a2.741,2.741,0,0,1,2.773-2.769c4.9-.172,9.744-.172,14.646,0,.5.017,1.1-.2,1.505,0a80.792,80.792,0,0,0-.286-14.11A3.968,3.968,0,0,0,17,1.023a41.653,41.653,0,0,0-11.484,0,3.968,3.968,0,0,0-3.482,3.46,114.1,114.1,0,0,0-.19,16.879Z" transform="translate(0.495 0.495)" fill="#f4feff"/>
    <path id="Union" d="M17.65.408a42.773,42.773,0,0,0-11.786,0A5.087,5.087,0,0,0,1.418,4.872a114.772,114.772,0,0,0-.247,16.147,3.488,3.488,0,0,0-.027.437,3.3,3.3,0,0,0,1.085,2.473A4.344,4.344,0,0,0,5.08,24.976c4.926.141,9.793.141,14.719,0a5.289,5.289,0,0,0,1.822-.37,1.126,1.126,0,0,0,.722-1.093,1.142,1.142,0,0,0-.832-1.021,1.049,1.049,0,0,1,0-2.073,1.142,1.142,0,0,0,.832-1.021v-.006a1.12,1.12,0,0,0,.038-.205A81.89,81.89,0,0,0,22.1,4.872,5.087,5.087,0,0,0,17.65.408ZM17.07,20.13q.716.016,1.433.037a3.192,3.192,0,0,0,0,2.583c-4.462.107-8.883.1-13.353-.032A1.9,1.9,0,0,1,3.892,22.3a1.108,1.108,0,0,1-.355-.849c0-.019,0-.038,0-.057a1.643,1.643,0,0,1,.382-.7,1.707,1.707,0,0,1,1.235-.493Q6.478,20.16,7.8,20.13C10.892,20.074,13.974,20.073,17.07,20.13Zm3-2.181.025,0,.142-.018a84.06,84.06,0,0,0-.367-12.845,2.85,2.85,0,0,0-2.518-2.456,40.535,40.535,0,0,0-11.183,0A2.85,2.85,0,0,0,3.648,5.083,109.755,109.755,0,0,0,3.3,18.3a4.922,4.922,0,0,1,1.783-.369c4.926-.141,9.793-.141,14.719,0Q19.933,17.939,20.066,17.949ZM18.88,7.868a1.12,1.12,0,0,0-1-.619H13.665a1.12,1.12,0,1,0,0,2.239h1.974l-3.133,4.175a1.12,1.12,0,0,0,.9,1.792h4.74a1.12,1.12,0,0,0,0-2.239h-2.5l3.133-4.175a1.12,1.12,0,0,0,.106-1.173Zm-11.193-.3.348-.987.348.987ZM9.794,4.835l1.221,3.457q.009.024.017.049l.694,1.964a1.12,1.12,0,0,1-2.112.746L9.175,9.809H6.9l-.439,1.242a1.12,1.12,0,0,1-2.112-.746L5.04,8.341q.008-.025.017-.049L6.278,4.835a1.864,1.864,0,0,1,3.516,0Z" transform="translate(0 0)" fill="#1db6bf" fill-rule="evenodd"/>
  </g>
</svg>
