<svg xmlns="http://www.w3.org/2000/svg" width="21.866" height="25.055" viewBox="0 0 21.866 25.055">
  <g id="film-category-icon" transform="translate(-1 -0.125)">
    <path id="Union" d="M20.944.2a1.139,1.139,0,0,1,1.122.943,71.29,71.29,0,0,1,.8,11.442,71.291,71.291,0,0,1-.8,11.442,1.139,1.139,0,0,1-1.122.943H2.922A1.139,1.139,0,0,1,1.8,24.03,71.293,71.293,0,0,1,1,12.588,71.293,71.293,0,0,1,1.8,1.147,1.139,1.139,0,0,1,2.922.2H20.944Z" transform="translate(0 0.064)" fill="#f4f0ff" fill-rule="evenodd"/>
    <path id="Union_2" d="M6.543.257A110.364,110.364,0,0,1,17.629.272a.911.911,0,0,1,.863.865q.011.22.011.446a12.922,12.922,0,0,1-.2,2.065,2.776,2.776,0,0,1-2.521,2.315l-.066.005H15.7c-1.142.088-2.364.182-3.62.182s-2.478-.094-3.62-.182l-.081-.006A2.776,2.776,0,0,1,5.863,3.648a12.921,12.921,0,0,1-.2-2.065c0-.156,0-.311.012-.463A.911.911,0,0,1,6.543.257ZM20.749.285A1.139,1.139,0,0,0,19.822,1.6a69.154,69.154,0,0,1,.767,11.051A69.155,69.155,0,0,1,19.822,23.7a1.139,1.139,0,1,0,2.244.391,71.291,71.291,0,0,0,.8-11.442,71.291,71.291,0,0,0-.8-11.442A1.139,1.139,0,0,0,20.749.285ZM3.118.285A1.139,1.139,0,0,0,1.8,1.211,71.293,71.293,0,0,0,1,12.653a71.293,71.293,0,0,0,.8,11.442A1.139,1.139,0,1,0,4.044,23.7a69.139,69.139,0,0,1-.767-11.051A69.138,69.138,0,0,1,4.044,1.6,1.139,1.139,0,0,0,3.118.285ZM12.084,17.22c-1.257,0-2.479-.094-3.621-.182l-.045,0a2.816,2.816,0,0,1-2.56-2.347,12.809,12.809,0,0,1-.193-2.035,12.809,12.809,0,0,1,.193-2.035,2.816,2.816,0,0,1,2.56-2.347l.045,0h0c1.142-.088,2.364-.182,3.621-.182s2.478.094,3.621.182l.045,0a2.816,2.816,0,0,1,2.56,2.347,12.8,12.8,0,0,1,.193,2.035,12.8,12.8,0,0,1-.193,2.035,2.816,2.816,0,0,1-2.56,2.347l-.045,0c-1.142.088-2.364.182-3.621.182Zm-3.62,2.116h0c1.142-.088,2.363-.182,3.62-.182s2.478.094,3.62.182h0l.081.006a2.776,2.776,0,0,1,2.521,2.315,12.92,12.92,0,0,1,.2,2.065q0,.226-.011.446a.911.911,0,0,1-.863.865,110.4,110.4,0,0,1-11.087.015.911.911,0,0,1-.865-.863c-.008-.152-.012-.307-.012-.463a12.92,12.92,0,0,1,.2-2.065,2.776,2.776,0,0,1,2.521-2.315l.081-.006Z" transform="translate(0 0)" fill="#2e00a7" fill-rule="evenodd"/>
  </g>
</svg>
