<svg xmlns="http://www.w3.org/2000/svg" width="23.555" height="23.555" viewBox="0 0 23.555 23.555">
  <g id="food-category-icon" transform="translate(0 0)">
    <path id="Vector_443" data-name="Vector 443" d="M7.544.625,7.56,15.74a10.663,10.663,0,0,1-6.825-.954C.077,8.333,2.376,3.843,7.544.625Z" transform="translate(0.427 0.427)" fill="#fff2ed"/>
    <path id="Union" d="M8.773,0a1.052,1.052,0,0,0-1.04.9,33.569,33.569,0,0,0-.365,5.646,5.432,5.432,0,0,0,5.578,5.185,5.432,5.432,0,0,0,5.578-5.185A33.544,33.544,0,0,0,18.159.9a1.051,1.051,0,0,0-1.04-.9Z" transform="translate(5.024 0)" fill="#fff1ed" fill-rule="evenodd"/>
    <path id="Union_2" d="M13.928.011a1.052,1.052,0,0,1,.886,1.194A31.469,31.469,0,0,0,14.471,6.5a3.221,3.221,0,0,0,2.424,2.979V1.052a1.052,1.052,0,1,1,2.1,0V9.479A3.22,3.22,0,0,0,21.422,6.5a31.481,31.481,0,0,0-.343-5.294A1.052,1.052,0,1,1,23.16.9a33.58,33.58,0,0,1,.365,5.646,5.31,5.31,0,0,1-4.106,5V22.083a1.472,1.472,0,1,1-2.944,0V11.54a5.31,5.31,0,0,1-4.106-5A33.571,33.571,0,0,1,12.734.9,1.052,1.052,0,0,1,13.928.011ZM8.481.132A1.052,1.052,0,0,0,7.415.159a15.478,15.478,0,0,0-5.979,6.3A16.093,16.093,0,0,0,.115,15.32a1.052,1.052,0,0,0,.573.832,10.6,10.6,0,0,0,5.4,1.215v4.715a1.472,1.472,0,0,0,2.944,0V16.562a1.488,1.488,0,0,0-.011-.184,1.054,1.054,0,0,0,.021-.212L9.022,1.051A1.052,1.052,0,0,0,8.481.132ZM6.921,3.064l.013,12.152a8.965,8.965,0,0,1-4.778-.694,13.657,13.657,0,0,1,1.17-7.141A12.39,12.39,0,0,1,6.921,3.064Z" transform="translate(0 0)" fill="#c64927" fill-rule="evenodd"/>
  </g>
</svg>
