<svg xmlns="http://www.w3.org/2000/svg" width="29.244" height="25.055" viewBox="0 0 29.244 25.055">
  <g id="heart-category-icon" transform="translate(-0.002 -1.002)">
    <path id="Union" d="M5.107,1.619C7.964.369,11.413.945,14.621,4.042c3.208-3.1,6.657-3.672,9.514-2.423A8.77,8.77,0,0,1,29.175,9.43v.021h0c0,4.743-3,8.892-6.093,11.759a26.194,26.194,0,0,1-4.675,3.466,14.938,14.938,0,0,1-2.023.982,5.172,5.172,0,0,1-1.763.4,5.172,5.172,0,0,1-1.763-.4,14.936,14.936,0,0,1-2.023-.982A26.194,26.194,0,0,1,6.16,21.21C3.065,18.343.067,14.194.067,9.451V9.43h0A8.77,8.77,0,0,1,5.107,1.619Z" transform="translate(0.071 0)" fill="#ddfff3" fill-rule="evenodd"/>
    <path id="Union_2" d="M29.236,9.43A8.771,8.771,0,0,0,24.2,1.618c-2.856-1.249-6.3-.674-9.512,2.423-3-2.9-6.213-3.6-8.98-2.632A8.643,8.643,0,0,0,.231,8.291a1.305,1.305,0,0,0,2.582.387,6.038,6.038,0,0,1,3.753-4.8c1.806-.629,4.371-.264,7.135,2.92a1.306,1.306,0,0,0,1.972,0C18.6,3.426,21.3,3.2,23.152,4.01a6.163,6.163,0,0,1,3.474,5.451c0,3.657-2.362,7.154-5.255,9.834a23.593,23.593,0,0,1-4.2,3.115,12.382,12.382,0,0,1-1.661.81,2.934,2.934,0,0,1-.829.226,3.836,3.836,0,0,1-1.166-.364,15.975,15.975,0,0,1-2.248-1.236A23.96,23.96,0,0,1,6.1,17.3a1.305,1.305,0,1,0-2,1.681,26.571,26.571,0,0,0,5.755,5.053,18.581,18.581,0,0,0,2.627,1.439,5.945,5.945,0,0,0,2.206.58,5.175,5.175,0,0,0,1.763-.4,14.954,14.954,0,0,0,2.023-.982,26.207,26.207,0,0,0,4.674-3.466c3.094-2.867,6.091-7.016,6.091-11.76h0ZM10.952,8.677a1.567,1.567,0,0,0-2.614-.163L5.752,11.966H1.569a1.567,1.567,0,1,0,0,3.133H6.535a1.567,1.567,0,0,0,1.254-.627L9.414,12.3l2.892,5.066a1.567,1.567,0,0,0,2.614.163l2.587-3.452H19.78a1.567,1.567,0,0,0,0-3.133H16.724a1.567,1.567,0,0,0-1.254.627l-1.625,2.169L10.952,8.677Z" transform="translate(0)" fill="#00a069" fill-rule="evenodd"/>
  </g>
</svg>
