<svg id="sport-category-icon" xmlns="http://www.w3.org/2000/svg" width="25.056" height="25.055" viewBox="0 0 25.056 25.055">
  <path id="Subtract_Stroke_" data-name="Subtract (Stroke)" d="M3.163,1.087a26.44,26.44,0,0,1,15.006,0,1.118,1.118,0,0,1,.8,1.059,51.435,51.435,0,0,1-1.2,11.692,6.842,6.842,0,0,1-5.318,5.53,11.058,11.058,0,0,1-3.568,0,6.842,6.842,0,0,1-5.318-5.53,51.43,51.43,0,0,1-1.2-11.692,1.119,1.119,0,0,1,.8-1.059Z" transform="translate(1.862)" fill="#fff8f9"/>
  <path id="Union" d="M12.527,0a26.432,26.432,0,0,0-7.5,1.087l-.016,0a26.432,26.432,0,0,0-4.1,1.6A1.625,1.625,0,0,0,0,4.149V6.222A8.362,8.362,0,0,0,1.8,11.49a6.142,6.142,0,0,0,3.471,2.183,1.125,1.125,0,0,0,.127.019l.032.146a6.842,6.842,0,0,0,5.318,5.53l.212.032v2.237a25.062,25.062,0,0,0-2.581.308A1.566,1.566,0,0,0,8.9,25.033a20.941,20.941,0,0,1,7.237,0,1.566,1.566,0,0,0,.529-3.087,25.075,25.075,0,0,0-2.582-.308V19.4l.224-.034a6.842,6.842,0,0,0,5.318-5.53l.032-.146a1.129,1.129,0,0,0,.128-.019A6.143,6.143,0,0,0,23.26,11.49a8.362,8.362,0,0,0,1.8-5.268V4.149a1.625,1.625,0,0,0-.911-1.46,26.429,26.429,0,0,0-4.356-1.673h0A26.433,26.433,0,0,0,12.527,0Zm8.3,3.7a51.064,51.064,0,0,1-.69,7.5,4.2,4.2,0,0,0,1.391-1.129,6.13,6.13,0,0,0,1.291-3.852V4.534Q21.837,4.073,20.826,3.7Zm-18.589.83q.981-.461,1.991-.83a51.067,51.067,0,0,0,.69,7.5,4.2,4.2,0,0,1-1.39-1.128A6.13,6.13,0,0,1,2.237,6.222Zm5.374,8.826A49.224,49.224,0,0,1,6.458,3.011a24.2,24.2,0,0,1,12.139,0,49.219,49.219,0,0,1-1.153,10.35,4.621,4.621,0,0,1-3.486,3.8,8.83,8.83,0,0,1-2.86,0,4.621,4.621,0,0,1-3.486-3.8Z" transform="translate(0)" fill="#dd0101" fill-rule="evenodd"/>
</svg>
