<svg xmlns="http://www.w3.org/2000/svg" width="25.055" height="25.055" viewBox="0 0 25.055 25.055">
  <g id="tech-category-icon" transform="translate(-0.25 -0.25)">
    <path id="Intersect" d="M3.089,14.619A3.879,3.879,0,0,0,6.5,18.037a36.653,36.653,0,0,0,4.072.274,36.653,36.653,0,0,0,4.072-.274,3.879,3.879,0,0,0,3.41-3.418,37.936,37.936,0,0,0,.26-4.049,37.936,37.936,0,0,0-.26-4.049A3.879,3.879,0,0,0,14.642,3.1a36.666,36.666,0,0,0-4.072-.274A36.666,36.666,0,0,0,6.5,3.1a3.879,3.879,0,0,0-3.41,3.418,37.965,37.965,0,0,0-.26,4.049,37.965,37.965,0,0,0,.26,4.049Z" transform="translate(2.207 2.207)" fill="#ffffd8"/>
    <path id="Union" d="M10.756,1.874a1.624,1.624,0,0,0-3.248,0V4.4a5.061,5.061,0,0,0-3.12,3.11H1.874a1.624,1.624,0,0,0,0,3.248H3.949c-.045.662-.073,1.337-.073,2.021s.028,1.359.073,2.021H1.874a1.624,1.624,0,1,0,0,3.248H4.389a5.061,5.061,0,0,0,3.12,3.11v2.524a1.624,1.624,0,0,0,3.248,0V21.6c.662.047,1.337.076,2.021.076s1.359-.03,2.022-.076v2.078a1.624,1.624,0,0,0,3.248,0V21.157a5.06,5.06,0,0,0,3.119-3.11h2.515a1.624,1.624,0,0,0,0-3.248H21.607c.045-.662.073-1.337.073-2.021s-.028-1.359-.073-2.021h2.075a1.624,1.624,0,0,0,0-3.248H21.167A5.061,5.061,0,0,0,18.047,4.4V1.874a1.624,1.624,0,0,0-3.248,0V3.952c-.662-.047-1.337-.076-2.022-.076s-1.359.029-2.021.076V1.874ZM12.778,6.2a35.547,35.547,0,0,0-3.943.267A2.719,2.719,0,0,0,6.45,8.853,36.847,36.847,0,0,0,6.2,12.778,36.846,36.846,0,0,0,6.45,16.7a2.719,2.719,0,0,0,2.385,2.389,35.534,35.534,0,0,0,3.943.267,35.534,35.534,0,0,0,3.943-.267A2.719,2.719,0,0,0,19.106,16.7a36.841,36.841,0,0,0,.253-3.925,36.841,36.841,0,0,0-.253-3.925,2.719,2.719,0,0,0-2.385-2.389A35.547,35.547,0,0,0,12.778,6.2Zm0,7.06a1.392,1.392,0,0,0,0,2.784h3.331a1.392,1.392,0,0,0,0-2.784H12.777Z" fill="#f08302" fill-rule="evenodd"/>
  </g>
</svg>
