<svg id="theater-category-icon" xmlns="http://www.w3.org/2000/svg" width="25.054" height="25.055" viewBox="0 0 25.054 25.055">
  <path id="Vector" d="M13.47,5.347a16.855,16.855,0,0,0-7.4-.175,13.5,13.5,0,0,0-.65,9.853c.7,2.224,2.223,4.372,4.565,4.97,2.36.521,4.684-.713,6.314-2.381a13.5,13.5,0,0,0,3.857-9.09A16.856,16.856,0,0,0,13.47,5.347Z" transform="translate(3.78 3.82)" fill="#e5eeff"/>
  <path id="Union" d="M8.442.012a18.058,18.058,0,0,1,7.84,1.454.9.9,0,0,1,.472.574,13.244,13.244,0,0,1,.4,4.126,19.414,19.414,0,0,0-8.022.007A2.908,2.908,0,0,0,7.251,7.687,15.979,15.979,0,0,0,5.74,16.334a9.647,9.647,0,0,1-3.4-3.29A14.659,14.659,0,0,1,.257,2.506a.9.9,0,0,1,.439-.6A18.058,18.058,0,0,1,8.442.012ZM8.85,8.49a14.363,14.363,0,0,0-1.22,8.538h0A14.363,14.363,0,0,1,8.85,8.49a1.118,1.118,0,0,1,.725-.582,10.939,10.939,0,0,1,1.156-.224,10.942,10.942,0,0,0-1.156.224,1.118,1.118,0,0,0-.725.582Zm1.416,10.018a12.51,12.51,0,0,1,.361-8.542,16.417,16.417,0,0,1,6.35.285l.027.006a16.416,16.416,0,0,1,5.8,2.6,12.51,12.51,0,0,1-3.524,7.789c-1.493,1.529-3.437,2.467-5.255,2.075-1.8-.468-3.113-2.181-3.757-4.219Zm-.692-10.6a17.946,17.946,0,0,1,7.934.171A17.947,17.947,0,0,1,24.67,11.5a1.119,1.119,0,0,1,.385.846,14.618,14.618,0,0,1-4.175,9.87c-1.761,1.8-4.457,3.332-7.355,2.692l-.035-.008c-2.876-.733-4.595-3.313-5.355-5.716A14.617,14.617,0,0,1,8.85,8.49a1.118,1.118,0,0,1,.725-.582Zm9.692,6.561a2.733,2.733,0,0,0-1.535,0,2.287,2.287,0,0,0-1.237.95,1.118,1.118,0,1,0,1.873,1.224A.156.156,0,0,1,18.4,16.6h0a.848.848,0,0,1,.545.146l0,0h0a.152.152,0,0,1,.008.049,1.118,1.118,0,1,0,2.234-.124,2.287,2.287,0,0,0-.6-1.441,2.734,2.734,0,0,0-1.329-.768ZM12.3,13.014a2.962,2.962,0,0,1,2.864.767,2.287,2.287,0,0,1,.6,1.441,1.118,1.118,0,1,1-2.234.124.16.16,0,0,0-.008-.048h0l0,0a.849.849,0,0,0-.545-.146h0a.161.161,0,0,0-.031.038,1.118,1.118,0,1,1-1.873-1.224,2.287,2.287,0,0,1,1.237-.95ZM13.522,15.3h0Z" transform="translate(0 0)" fill="#0037a0" fill-rule="evenodd"/>
</svg>
