<svg xmlns="http://www.w3.org/2000/svg" width="25.055" height="25.055" viewBox="0 0 25.055 25.055">
  <g id="travel-category-icon" transform="translate(-0.25 -0.25)">
    <path id="Intersect" d="M1.245,17.446A3.822,3.822,0,0,0,4.69,20.674a85.505,85.505,0,0,0,15.105,0,3.822,3.822,0,0,0,3.445-3.228,33.752,33.752,0,0,0,0-9.969A3.822,3.822,0,0,0,19.8,4.249a85.487,85.487,0,0,0-15.105,0A3.822,3.822,0,0,0,1.245,7.477a33.751,33.751,0,0,0,0,9.969Z" transform="translate(0.535 3.137)" fill="#fffee0"/>
    <path id="Union" d="M8.762,1.713A5.507,5.507,0,0,1,12.778.25,5.507,5.507,0,0,1,16.8,1.713,5.507,5.507,0,0,1,18.258,5.73c0,.006,0,.014,0,.022,0,.063,0,.176-.006.315q1.086.069,2.179.165a4.982,4.982,0,0,1,4.492,4.216,34.9,34.9,0,0,1,0,10.3,4.982,4.982,0,0,1-4.492,4.216,86.657,86.657,0,0,1-15.308,0A4.982,4.982,0,0,1,.632,20.751a34.909,34.909,0,0,1,0-10.3A4.982,4.982,0,0,1,5.124,6.23q1.091-.1,2.172-.164V5.981h0c0-.052,0-.1,0-.137s0-.09,0-.114A5.507,5.507,0,0,1,8.762,1.713ZM9.617,5.95c2.109-.078,4.207-.078,6.317,0,0-.107,0-.187,0-.22a3.222,3.222,0,0,0-.783-2.376,3.222,3.222,0,0,0-2.376-.783,3.222,3.222,0,0,0-2.376.783A3.222,3.222,0,0,0,9.619,5.73c0,.025,0,.065,0,.116,0,.031,0,.067,0,.1Zm9.728,2.519q.441.034.883.073a2.662,2.662,0,0,1,2.4,2.24,32.588,32.588,0,0,1,0,9.634,2.662,2.662,0,0,1-2.4,2.24q-.442.039-.883.073ZM16.1,8.278c-2.218-.088-4.421-.088-6.639,0V22.919c2.218.088,4.421.088,6.639,0ZM6.21,22.729V8.469q-.441.034-.884.073a2.662,2.662,0,0,0-2.4,2.24,32.591,32.591,0,0,0,0,9.634,2.662,2.662,0,0,0,2.4,2.24q.443.039.884.073Z" transform="translate(0 0)" fill="#e3da00" fill-rule="evenodd"/>
  </g>
</svg>
