<svg xmlns="http://www.w3.org/2000/svg" xmlns:xlink="http://www.w3.org/1999/xlink" width="121.516" height="47.843" viewBox="0 0 121.516 47.843">
  <defs>
    <linearGradient id="linear-gradient" x1="0.127" y1="0.071" x2="0.903" y2="0.908" gradientUnits="objectBoundingBox">
      <stop offset="0" stop-color="#2e00a7"/>
      <stop offset="1" stop-color="#6512c6"/>
    </linearGradient>
  </defs>
  <g id="lobi-logo" transform="translate(-29.105 -74.045)">
    <g id="lobitext" transform="translate(84.875 80.783)">
      <g id="Group_9091" data-name="Group 9091" transform="translate(0 0)">
        <path id="Path_9196" data-name="Path 9196" d="M12.285-.728A16.193,16.193,0,0,1,7.7-1.337,6.8,6.8,0,0,1,4.911-2.924,5.268,5.268,0,0,1,3.519-5.4,13.379,13.379,0,0,1,3.15-8.691V-33.876L9.627-34.92V-9.994a8.54,8.54,0,0,0,.131,1.566,2.707,2.707,0,0,0,.5,1.175,2.655,2.655,0,0,0,1.063.783,5.841,5.841,0,0,0,1.871.392ZM35.906-12.647a14.879,14.879,0,0,1-.783,4.938,10.73,10.73,0,0,1-2.262,3.828,10.18,10.18,0,0,1-3.546,2.457,11.831,11.831,0,0,1-4.632.87,11.714,11.714,0,0,1-4.589-.87,10.18,10.18,0,0,1-3.546-2.457A11.254,11.254,0,0,1,14.243-7.71a14.168,14.168,0,0,1-.827-4.938,13.663,13.663,0,0,1,.848-4.916,11.147,11.147,0,0,1,2.349-3.785,10.55,10.55,0,0,1,3.567-2.436,11.484,11.484,0,0,1,4.5-.87,11.6,11.6,0,0,1,4.543.87,10.321,10.321,0,0,1,3.554,2.436,11.056,11.056,0,0,1,2.306,3.785A13.986,13.986,0,0,1,35.906-12.647Zm-6.612,0a8.148,8.148,0,0,0-1.2-4.72,3.912,3.912,0,0,0-3.415-1.719,3.963,3.963,0,0,0-3.437,1.719,8.038,8.038,0,0,0-1.218,4.72,8.248,8.248,0,0,0,1.218,4.764,3.936,3.936,0,0,0,3.437,1.761A3.882,3.882,0,0,0,28.1-7.884a8.363,8.363,0,0,0,1.2-4.764Zm23.882-.131q0-6.264-4.611-6.264a7.648,7.648,0,0,0-1.978.261A5.632,5.632,0,0,0,45-18.129V-6.34q.479.087,1.218.152t1.61.066a4.658,4.658,0,0,0,4-1.827,7.941,7.941,0,0,0,1.353-4.829Zm6.612.174a14.463,14.463,0,0,1-.8,4.959A10.469,10.469,0,0,1,56.656-3.86a10.228,10.228,0,0,1-3.741,2.417,14.054,14.054,0,0,1-5.046.849q-1.175,0-2.457-.109T42.888-.989q-1.239-.174-2.37-.414t-2-.5V-33.876l6.477-1.044v11.4a12.144,12.144,0,0,1,2.262-.74,11.617,11.617,0,0,1,2.523-.261,10.329,10.329,0,0,1,4.307.849,8.433,8.433,0,0,1,3.132,2.417,10.843,10.843,0,0,1,1.914,3.763,17.156,17.156,0,0,1,.657,4.89ZM68.88-1.163H62.4V-24.045H68.88Z" transform="translate(-3.149 34.92)" fill="#1a1a1a"/>
      </g>
      <g id="Amfi-icon" transform="translate(58.463 0.497)">
        <path id="Path_8945" data-name="Path 8945" d="M5.837.661,4.8,2.472a3.779,3.779,0,0,1,1.412.74,2.761,2.761,0,0,1,0,4.359c-.559.473-2.61,1.828-3.735,2.513H1.45L2.484,8.309a3.779,3.779,0,0,1-1.415-.738,2.755,2.755,0,0,1,0-4.359C1.735,2.65,4.431.785,4.716.661ZM3.643,3.136A2.6,2.6,0,0,0,.811,5.393,2.6,2.6,0,0,0,3.643,7.65,2.6,2.6,0,0,0,6.477,5.393,2.6,2.6,0,0,0,3.643,3.136Zm0,.865A1.518,1.518,0,0,1,5.262,5.393a1.518,1.518,0,0,1-1.618,1.4A1.518,1.518,0,0,1,2.025,5.4,1.518,1.518,0,0,1,3.643,4Zm0,.752a.74.74,0,0,0-.809.639.74.74,0,0,0,.809.639.74.74,0,0,0,.809-.639.74.74,0,0,0-.809-.638Z" transform="translate(0.001 -0.661)" fill="#3101a9"/>
      </g>
    </g>
    <g id="Amfi-icon-2" data-name="Amfi-icon" transform="translate(29.105 74.045)">
      <path id="Path_8960" data-name="Path 8960" d="M13.381,0H34.409A13.381,13.381,0,0,1,47.79,13.381V34.409A13.381,13.381,0,0,1,34.409,47.79H13.381A13.381,13.381,0,0,1,0,34.409V13.381A13.381,13.381,0,0,1,13.381,0Z" transform="translate(0 0.045)" fill="url(#linear-gradient)"/>
      <path id="Path_8945-2" data-name="Path 8945" d="M27.535.661,22.665,9.85a17.438,17.438,0,0,1,6.66,3.766,14.672,14.672,0,0,1,0,22.116C26.69,38.131,17.009,45,11.7,48.5H6.824L11.7,39.5a17.44,17.44,0,0,1-6.66-3.766,14.643,14.643,0,0,1,0-22.116C8.185,10.755,20.9,1.291,22.247.661ZM17.185,13.222c-7.379,0-13.36,5.127-13.36,11.451s5.982,11.451,13.36,11.451S30.545,31,30.545,24.673,24.563,13.222,17.185,13.222Zm0,4.39a7.365,7.365,0,0,1,7.634,7.062,7.365,7.365,0,0,1-7.634,7.062A7.365,7.365,0,0,1,9.55,24.673,7.365,7.365,0,0,1,17.185,17.611Zm0,3.817a3.572,3.572,0,0,0-3.817,3.245,3.572,3.572,0,0,0,3.817,3.245A3.572,3.572,0,0,0,21,24.673,3.572,3.572,0,0,0,17.185,21.429Z" transform="translate(6.718 -0.661)" fill="#fff"/>
    </g>
  </g>
</svg>
