<svg id="lobi-icon" xmlns="http://www.w3.org/2000/svg" xmlns:xlink="http://www.w3.org/1999/xlink" width="200.302" height="200.3" viewBox="0 0 200.302 200.3">
  <defs>
    <linearGradient id="linear-gradient" x1="0.127" y1="0.071" x2="0.903" y2="0.908" gradientUnits="objectBoundingBox">
      <stop offset="0" stop-color="#2e00a7"/>
      <stop offset="1" stop-color="#6512c6"/>
    </linearGradient>
  </defs>
  <path id="Path_8960" data-name="Path 8960" d="M56.085,0h88.133A56.053,56.053,0,0,1,200.3,56.021v88.033a56.053,56.053,0,0,1-56.085,56.021H56.085A56.053,56.053,0,0,1,0,144.055V56.021A56.053,56.053,0,0,1,56.085,0Z" transform="translate(0 0.19)" fill="url(#linear-gradient)"/>
  <path id="Path_8945" data-name="Path 8945" d="M115.408.661,95,39.131A73.109,73.109,0,0,1,122.912,54.9c28.1,25.568,28.1,67.021,0,92.589-11.045,10.048-51.621,38.825-73.857,53.475H28.6l20.454-37.709A73.119,73.119,0,0,1,21.14,147.486c-28.1-25.568-28.27-66.87,0-92.589C34.3,42.92,87.618,3.3,93.243.661ZM72.026,53.249c-30.926,0-56,21.465-56,47.942s25.07,47.942,56,47.942,56-21.465,56-47.942S102.952,53.249,72.026,53.249Zm0,18.378c17.671,0,32,13.237,32,29.564s-14.326,29.565-32,29.565-32-13.236-32-29.565S54.354,71.627,72.026,71.627Zm0,15.981c-9.1,0-16,6.372-16,13.584s6.9,13.584,16,13.584,16-6.372,16-13.584S81.128,87.607,72.026,87.607Z" transform="translate(28.156 -0.661)" fill="#fff"/>
</svg>
