<svg xmlns="http://www.w3.org/2000/svg" width="68.011" height="35.55" viewBox="0 0 68.011 35.55">
  <g id="lobitext-white" transform="translate(1148.995 -166.35)">
    <g id="Group_9091" data-name="Group 9091" transform="translate(-1701.181 -65.58)">
      <path id="Path_9196" data-name="Path 9196" d="M12.6.45A16.751,16.751,0,0,1,7.852-.18a7.032,7.032,0,0,1-2.88-1.642,5.449,5.449,0,0,1-1.44-2.565,13.84,13.84,0,0,1-.382-3.4V-33.84l6.7-1.08V-9.135a8.834,8.834,0,0,0,.135,1.62A2.8,2.8,0,0,0,10.507-6.3a2.747,2.747,0,0,0,1.1.81,6.042,6.042,0,0,0,1.935.405ZM37.035-11.88a15.392,15.392,0,0,1-.81,5.108,11.1,11.1,0,0,1-2.34,3.96A10.531,10.531,0,0,1,30.217-.27a12.239,12.239,0,0,1-4.792.9,12.118,12.118,0,0,1-4.747-.9A10.531,10.531,0,0,1,17.01-2.812a11.642,11.642,0,0,1-2.385-3.96,14.656,14.656,0,0,1-.855-5.108,14.134,14.134,0,0,1,.877-5.085,11.531,11.531,0,0,1,2.43-3.915,10.913,10.913,0,0,1,3.69-2.52,11.88,11.88,0,0,1,4.657-.9,12,12,0,0,1,4.7.9A10.677,10.677,0,0,1,33.8-20.88a11.437,11.437,0,0,1,2.385,3.915A14.468,14.468,0,0,1,37.035-11.88Zm-6.84,0a8.429,8.429,0,0,0-1.237-4.883,4.047,4.047,0,0,0-3.533-1.778,4.1,4.1,0,0,0-3.555,1.778,8.315,8.315,0,0,0-1.26,4.883,8.532,8.532,0,0,0,1.26,4.928A4.072,4.072,0,0,0,25.425-5.13a4.016,4.016,0,0,0,3.533-1.822A8.651,8.651,0,0,0,30.195-11.88ZM54.9-12.015q0-6.48-4.77-6.48a7.914,7.914,0,0,0-2.048.27,5.826,5.826,0,0,0-1.642.675V-5.355q.495.09,1.26.157t1.665.068A4.818,4.818,0,0,0,53.5-7.02,8.215,8.215,0,0,0,54.9-12.015Zm6.84.18a14.961,14.961,0,0,1-.832,5.13A10.83,10.83,0,0,1,58.5-2.79a10.58,10.58,0,0,1-3.87,2.5,14.538,14.538,0,0,1-5.22.878q-1.215,0-2.542-.113T44.257.18Q42.975,0,41.805-.248t-2.07-.518V-33.84l6.7-1.08v11.79a12.562,12.562,0,0,1,2.34-.765,12.017,12.017,0,0,1,2.61-.27,10.685,10.685,0,0,1,4.455.878,8.724,8.724,0,0,1,3.24,2.5,11.217,11.217,0,0,1,1.98,3.893A17.747,17.747,0,0,1,61.74-11.835ZM71.145,0H64.44V-23.67h6.705Z" transform="translate(549.036 266.85)" fill="#fff"/>
    </g>
    <g id="Amfi-icon" transform="translate(-1089.502 166.864)">
      <path id="Path_8945" data-name="Path 8945" d="M6.038.661,4.97,2.534A3.909,3.909,0,0,1,6.431,3.3a2.856,2.856,0,0,1,0,4.509c-.578.489-2.7,1.891-3.864,2.6H1.5l1.07-1.836A3.909,3.909,0,0,1,1.106,7.81a2.85,2.85,0,0,1,0-4.509C1.795,2.719,4.584.789,4.879.661ZM3.769,3.221A2.684,2.684,0,0,0,.839,5.556a2.684,2.684,0,0,0,2.93,2.335A2.684,2.684,0,0,0,6.7,5.556,2.684,2.684,0,0,0,3.769,3.221Zm0,.895a1.57,1.57,0,0,1,1.674,1.44A1.57,1.57,0,0,1,3.769,7a1.57,1.57,0,0,1-1.674-1.44A1.57,1.57,0,0,1,3.769,4.116Zm0,.778a.766.766,0,0,0-.837.661.766.766,0,0,0,.837.661.766.766,0,0,0,.837-.661A.766.766,0,0,0,3.769,4.895Z" transform="translate(0.984 -0.661)" fill="#fff"/>
    </g>
  </g>
</svg>
