<svg xmlns="http://www.w3.org/2000/svg" xmlns:xlink="http://www.w3.org/1999/xlink" width="40" height="40" viewBox="0 0 40 40">
  <defs>
    <linearGradient id="linear-gradient" x1="0.5" x2="0.5" y2="1" gradientUnits="objectBoundingBox">
      <stop offset="0" stop-color="#ff7372"/>
      <stop offset="1" stop-color="#dc0100"/>
    </linearGradient>
  </defs>
  <g id="setting-qr-icon" transform="translate(-2728 -1244)">
    <rect id="Rectangle_2900" data-name="Rectangle 2900" width="40" height="40" rx="12" transform="translate(2728 1244)" fill="url(#linear-gradient)"/>
    <g id="qr-code--codes-tags-code-qr" transform="translate(2735.738 1251.738)">
      <path id="Union" d="M3.068.076A2.992,2.992,0,0,0,.076,3.068V5.576a1.32,1.32,0,1,0,2.64,0V3.068a.352.352,0,0,1,.352-.352H5.576a1.32,1.32,0,1,0,0-2.64H3.068Zm15.88,0a1.32,1.32,0,0,0,0,2.64h2.508a.352.352,0,0,1,.352.352V5.576a1.32,1.32,0,0,0,2.64,0V3.068A2.992,2.992,0,0,0,21.455.076H18.948ZM1.4,17.629a1.32,1.32,0,0,1,1.32,1.32v2.508a.352.352,0,0,0,.352.352H5.576a1.32,1.32,0,0,1,0,2.64H3.068A2.992,2.992,0,0,1,.076,21.457V18.949a1.32,1.32,0,0,1,1.32-1.32Zm23.051,1.32a1.32,1.32,0,1,0-2.64,0v2.508a.352.352,0,0,1-.352.352H18.948a1.32,1.32,0,0,0,0,2.64h2.508a2.992,2.992,0,0,0,2.992-2.992Z" transform="translate(0 0)" fill="#fff" fill-rule="evenodd" opacity="0.7"/>
      <path id="Union_2" d="M4.946,2.746a2.2,2.2,0,0,0-2.2,2.2V8.594a2.2,2.2,0,0,0,2.2,2.2H8.594a2.2,2.2,0,0,0,2.2-2.2V4.946a2.2,2.2,0,0,0-2.2-2.2Zm.44,5.408V5.386H8.154V8.154H5.386Zm0,5.933a1.32,1.32,0,0,0-2.64,0V16.4a1.32,1.32,0,0,0,1.32,1.32H6.378a1.32,1.32,0,1,0,0-2.64H5.386v-.993Zm2.569,0a1.32,1.32,0,0,1,1.32-1.32h.957a1.32,1.32,0,0,1,1.32,1.32V16.4a1.32,1.32,0,1,1-2.64,0V15.358A1.32,1.32,0,0,1,7.955,14.087ZM15.407,4.066a1.32,1.32,0,0,0-2.64,0V6.378a1.32,1.32,0,0,0,1.32,1.32H16.4a1.32,1.32,0,1,0,0-2.64h-.993V4.066Zm-2.64,6.167a1.32,1.32,0,0,1,1.32-1.32H16.4a1.32,1.32,0,0,1,1.32,1.32v1.125a1.32,1.32,0,0,1-2.626.2H14.087a1.32,1.32,0,0,1-1.32-1.32Zm2.64,3.854a1.32,1.32,0,0,0-2.64,0V16.4a1.32,1.32,0,0,0,1.32,1.32H16.4a1.32,1.32,0,1,0,0-2.64h-.993Z" transform="translate(2.029 2.029)" fill="#fff" fill-rule="evenodd"/>
    </g>
  </g>
</svg>
