<svg xmlns="http://www.w3.org/2000/svg" width="40" height="40" viewBox="0 0 40 40">
  <g id="setting-delete-icon" transform="translate(-2728 -1244)">
    <rect id="Rectangle_2900" data-name="Rectangle 2900" width="40" height="40" rx="12" transform="translate(2728 1244)" fill="none"/>
    <g id="setting-delete-icon-2" data-name="setting-delete-icon" transform="translate(2731.864 1248.393)">
      <path id="Union" d="M29.491,15.363a.963.963,0,0,0-1.039-1.022c-1.937.158-5.432.334-11.379.334-5.917,0-9.407-.174-11.349-.331a.963.963,0,0,0-1.039,1.021c.57,8.887,1.117,13.529,1.447,15.762A3.619,3.619,0,0,0,8.845,34.2a35.758,35.758,0,0,0,8.243.788A35.8,35.8,0,0,0,25.33,34.2a3.619,3.619,0,0,0,2.714-3.074c.329-2.233.876-6.876,1.447-15.764Z" transform="translate(-0.952 -4.774)" fill="#f75f60"/>
      <path id="Union_2" d="M15.73,1a5.137,5.137,0,0,0-4.517,2.689c-2.19.046-3.852.117-5.017.181a4.075,4.075,0,0,0-3.66,2.315,9.03,9.03,0,0,0-.426,1.232,2.5,2.5,0,0,0,2.348,3.1c1.963.166,5.531.352,11.661.352s9.7-.186,11.662-.353A2.572,2.572,0,0,0,30.19,7.44q-.081-.378-.189-.749a4.175,4.175,0,0,0-3.973-2.832q-2.485-.122-4.972-.17A5.137,5.137,0,0,0,16.54,1Z" transform="translate(0 0)" fill="#dd0002"/>
      <path id="Vector_831_Stroke_" data-name="Vector 831 (Stroke)" d="M17.156,23.006a1.284,1.284,0,0,1,1.406,1.15l.642,6.421a1.284,1.284,0,1,1-2.556.256l-.642-6.421A1.284,1.284,0,0,1,17.156,23.006Z" transform="translate(-5.002 -7.874)" fill="#e2e2e2" fill-rule="evenodd"/>
      <path id="Vector_832_Stroke_" data-name="Vector 832 (Stroke)" d="M29.055,23.006a1.284,1.284,0,0,0-1.406,1.15l-.642,6.421a1.284,1.284,0,1,0,2.556.256l.642-6.421A1.284,1.284,0,0,0,29.055,23.006Z" transform="translate(-8.939 -7.874)" fill="#e2e2e2" fill-rule="evenodd"/>
    </g>
  </g>
</svg>
