<svg xmlns="http://www.w3.org/2000/svg" xmlns:xlink="http://www.w3.org/1999/xlink" width="40" height="40" viewBox="0 0 40 40">
  <defs>
    <linearGradient id="linear-gradient" x1="0.5" x2="0.5" y2="1" gradientUnits="objectBoundingBox">
      <stop offset="0" stop-color="#51e01d"/>
      <stop offset="1" stop-color="#299800"/>
    </linearGradient>
  </defs>
  <g id="setting-lock-icon" transform="translate(-2728 -1244)">
    <rect id="Rectangle_2900" data-name="Rectangle 2900" width="40" height="40" rx="12" transform="translate(2728 1244)" fill="url(#linear-gradient)"/>
    <g id="padlock-square-2--combination-combo-key-keyhole-lock-secure-security-square-unlock-unlocked" transform="translate(2733.382 1250.298)">
      <path id="Union" d="M16.923,1.5a6.779,6.779,0,0,0-6.755,6.216l-.49,5.874a1.356,1.356,0,0,0,1.351,1.469h2.137a1.356,1.356,0,0,0,1.354-1.276l.323-5.491A2.6,2.6,0,0,1,19.468,6.8a1.671,1.671,0,0,0,1.246.68Q22,7.5,23.087,7.523a1.212,1.212,0,0,0,1.236-1.59A6.781,6.781,0,0,0,17.963,1.5H16.923Z" transform="translate(-2.825 0)" fill="#fff" opacity="0.7"/>
      <path id="Union_2" d="M14.618,34.143c-3.514,0-6.01-.081-7.616-.161a3.438,3.438,0,0,1-3.333-3.105c-.094-1-.169-2.341-.169-4.055s.076-3.054.169-4.055A3.438,3.438,0,0,1,7,19.661c1.606-.08,4.1-.161,7.616-.161s6.01.081,7.616.161a3.438,3.438,0,0,1,3.333,3.105c.094,1,.169,2.341.169,4.055s-.076,3.054-.169,4.055a3.438,3.438,0,0,1-3.333,3.105C20.628,34.062,18.132,34.143,14.618,34.143Z" transform="translate(0 -8.238)" fill="#fff"/>
      <path id="Union_3" d="M23.515,30.871a2.169,2.169,0,1,0-2.692,0l-.345,1.481a.854.854,0,0,0,.676,1.092,7.531,7.531,0,0,0,1.015.065,7.433,7.433,0,0,0,1.015-.065.852.852,0,0,0,.676-1.091Z" transform="translate(-7.552 -11.671)" fill="#38b40b"/>
    </g>
  </g>
</svg>
