<svg xmlns="http://www.w3.org/2000/svg" xmlns:xlink="http://www.w3.org/1999/xlink" width="40" height="40" viewBox="0 0 40 40">
  <defs>
    <linearGradient id="linear-gradient" x1="0.5" x2="0.5" y2="1" gradientUnits="objectBoundingBox">
      <stop offset="0" stop-color="#6212c4"/>
      <stop offset="1" stop-color="#2e00a7"/>
    </linearGradient>
  </defs>
  <g id="setting-event-icon" transform="translate(-2728 -1244)">
    <rect id="Rectangle_2900" data-name="Rectangle 2900" width="40" height="40" rx="12" transform="translate(2728 1244)" fill="url(#linear-gradient)"/>
    <g id="compress-PDF--essential-files-folder-compress-PDF" transform="translate(2735.488 1251.238)">
      <path id="Subtract" d="M6.664,1.846A62.929,62.929,0,0,1,13.849,1.5q1.49,0,2.71.041a.751.751,0,0,1,.2.034A11.459,11.459,0,0,1,21.032,4.5a12.292,12.292,0,0,1,2.877,3.849,2.268,2.268,0,0,0-.825.432A18.523,18.523,0,0,0,21.178,10.6a3.238,3.238,0,0,0,0,4.313,18.427,18.427,0,0,0,1.906,1.829,2.268,2.268,0,0,0,.937.46c-.071,1.647-.175,2.873-.275,3.754a3.05,3.05,0,0,1-2.713,2.715,62.936,62.936,0,0,1-7.184.346,62.928,62.928,0,0,1-7.184-.346,3.05,3.05,0,0,1-2.713-2.715c-.1-.88-.2-2.107-.275-3.754a2.267,2.267,0,0,0,.937-.46,18.531,18.531,0,0,0,1.906-1.829,3.239,3.239,0,0,0,0-4.313A18.425,18.425,0,0,0,4.612,8.776a2.268,2.268,0,0,0-.936-.46c.071-1.647.175-2.874.275-3.754A3.05,3.05,0,0,1,6.664,1.846Z" transform="translate(-1.337)" fill="#fff"/>
      <path id="Union" d="M15,14a1,1,0,1,1,0-2h4a1,1,0,0,1,0,2Zm0,5.005a1,1,0,1,1,0-2h8.008a1,1,0,1,1,0,2Zm0,5.005a1,1,0,1,1,0-2h8.008a1,1,0,1,1,0,2Z" transform="translate(-6.493 -5.245)" fill="#4708b5" fill-rule="evenodd"/>
      <path id="Vector" d="M2.328,23.824a.794.794,0,0,1-.867.1A.862.862,0,0,1,1,23.147v-4.29a.862.862,0,0,1,.461-.771.794.794,0,0,1,.867.095A16.95,16.95,0,0,1,4.058,19.84a1.737,1.737,0,0,1,0,2.324,17,17,0,0,1-1.729,1.659Z" transform="translate(0 -8.241)" fill="#fff" opacity="0.7"/>
      <path id="Vector_2" d="M42.175,23.825a.794.794,0,0,0,.867.1.863.863,0,0,0,.461-.771v-4.29a.862.862,0,0,0-.461-.771.794.794,0,0,0-.867.095,16.949,16.949,0,0,0-1.729,1.659,1.737,1.737,0,0,0,0,2.324,17,17,0,0,0,1.729,1.659Z" transform="translate(-19.48 -8.242)" fill="#fff" opacity="0.7"/>
    </g>
  </g>
</svg>
