<svg xmlns="http://www.w3.org/2000/svg" width="50.026" height="50.026" viewBox="0 0 50.026 50.026">
  <g id="google-icon" transform="translate(-1 -1)">
    <path id="Path_8973" data-name="Path 8973" d="M36.013,15.116A28.74,28.74,0,0,0,35.558,10H12v9.687H25.462a11.534,11.534,0,0,1-5.025,7.527v6.3h8.118c4.73-4.366,7.458-10.778,7.458-18.4Z" transform="translate(14.013 11.465)" fill="#4285f4"/>
    <path id="Path_8974" data-name="Path 8974" d="M24.51,34.338a23.873,23.873,0,0,0,16.554-6.049l-8.118-6.3A15.039,15.039,0,0,1,10.5,14.1H2.18v6.458A24.99,24.99,0,0,0,24.51,34.338Z" transform="translate(1.503 16.688)" fill="#34a853"/>
    <path id="Path_8975" data-name="Path 8975" d="M12.006,23.033a14.587,14.587,0,0,1,0-9.5V7.07H3.683a24.76,24.76,0,0,0,0,22.421l6.481-5.048,1.842-1.41Z" transform="translate(0 7.733)" fill="#fbbc05"/>
    <path id="Path_8976" data-name="Path 8976" d="M24.51,10.96a13.648,13.648,0,0,1,9.573,3.729l7.163-7.163A24,24,0,0,0,24.51,1,24.969,24.969,0,0,0,2.18,14.8L10.5,21.261A14.933,14.933,0,0,1,24.51,10.96Z" transform="translate(1.503 0)" fill="#ea4335"/>
    <path id="Path_8977" data-name="Path 8977" d="M1,1H51.026V51.026H1Z" transform="translate(0 0)" fill="none"/>
  </g>
</svg>
