<svg id="parafoni-icon-logo-dark" xmlns="http://www.w3.org/2000/svg" xmlns:xlink="http://www.w3.org/1999/xlink" width="68.561" height="66.534" viewBox="0 0 68.561 66.534">
  <defs>
    <linearGradient id="linear-gradient" x1="-0.108" y1="-0.47" x2="1" y2="-1.301" gradientUnits="objectBoundingBox">
      <stop offset="0" stop-color="#6212c4"/>
      <stop offset="1" stop-color="#3402aa"/>
    </linearGradient>
  </defs>
  <path id="Path_10" data-name="Path 10" d="M42.978,34.931A26.422,26.422,0,0,0,26.774,34a29.684,29.684,0,0,0-10.128,5.142l-2.181,1.87-.623.623,1.4,1.246c.156,0,.156.156.312.312a6.607,6.607,0,0,0,1.091.779l.935.623.935-.779a3.4,3.4,0,0,1,.779-.623,22.438,22.438,0,0,1,9.193-4.674,21.6,21.6,0,0,1,13.245.779A27.616,27.616,0,0,0,62.3,38.515l.312-.156.467-.468c0-.156.156-.156.312-.311a20.726,20.726,0,0,0,2.181-2.961l3.117-4.83-4.986,2.8c-7.323,4.051-14.024,4.83-20.724,2.337Z" transform="translate(-2.778 16.644)" fill="url(#linear-gradient)"/>
  <path id="Path_11" data-name="Path 11" d="M27.416,33.615a21.6,21.6,0,0,1,13.244.779c4.986,1.87,17.763,4.519,32.1-8.414l3.116-3.116-.311-.779a18.934,18.934,0,0,0-.779-2.181l-.779-2.181L72.447,19.28c-.156.312-.468.467-.779.779-6.856,7.012-17.452,14.179-29.606,9.817a26.422,26.422,0,0,0-16.2-.935,32.615,32.615,0,0,0-13.4,7.791v-.156L10.12,39.068c0,.156-.156.156-.312.312l-.467.467.156.623c.156.779.467,1.558.623,2.337l.935,2.493,1.558-2.026c.156-.312.467-.467.623-.779,3.272-2.96,7.791-7.168,14.18-8.882Z" transform="translate(-8.562 1.133)" fill="url(#linear-gradient)"/>
  <path id="Path_12" data-name="Path 12" d="M12.74,35.192a26.436,26.436,0,0,1,12-7.323,21.6,21.6,0,0,1,13.245.779c14.024,5.142,26.178-3.272,31.475-7.791l2.026-2.026.779-.623-.623-.935a16.32,16.32,0,0,1-1.246-1.714l-.935-1.246L68.367,15.4l-.623.623c-6.544,6.233-16.672,12.621-28.2,8.258a26.423,26.423,0,0,0-16.205-.935,35.264,35.264,0,0,0-9.5,4.519l-3.272,2.649-.779.779-.312.311v.468c-.156,1.091-.156,2.181-.312,3.116L9,39.087l2.649-2.8a7.187,7.187,0,0,1,1.091-1.091Z" transform="translate(-9 -3.249)" fill="url(#linear-gradient)"/>
  <path id="Path_13" data-name="Path 13" d="M42.853,37.948c-.467-.156-.779-.311-1.246-.467A26.423,26.423,0,0,0,25.4,36.546a26.835,26.835,0,0,0-3.272,1.091l-3.74,1.714-.935.467,3.116,1.091,2.8.935.468.156.467-.156a4.953,4.953,0,0,1,1.4-.468,2.216,2.216,0,0,0,.935-.311,21.726,21.726,0,0,1,12.154.467c.467.156.779.312,1.247.468l.779.312.467-.156a20.145,20.145,0,0,0,3.272-1.091l4.363-1.558-4.519-1.091c-.467-.156-1.091-.312-1.558-.468Z" transform="translate(1.867 24.223)" fill="url(#linear-gradient)"/>
  <path id="Path_14" data-name="Path 14" d="M74.668,22.562,72.331,24.9l-.935.935c-6.389,6.077-16.672,12.621-28.2,8.258a26.424,26.424,0,0,0-16.205-.935A31.194,31.194,0,0,0,13.9,40.793l-2.026,2.182-.623.779.623.935A10.487,10.487,0,0,1,12.965,46.4l.935,1.4,1.091-1.4.623-.623a25.572,25.572,0,0,1,12.466-7.791,21.6,21.6,0,0,1,13.244.779,26.289,26.289,0,0,0,12,1.4c7.168-.779,14.335-4.83,19.633-9.349.312-.312.623-.468.935-.779l.467-.468v-.467c0-.935.156-2.026.156-2.96Z" transform="translate(-6.107 7.355)" fill="url(#linear-gradient)"/>
  <path id="Path_15" data-name="Path 15" d="M16.859,22.512a22.759,22.759,0,0,1,2.96-1.091,21.6,21.6,0,0,1,13.245.779,25.912,25.912,0,0,0,9.193,1.558c6.544,0,13.089-2.337,19.166-6.856l3.116-2.493-1.4-1.091a6.926,6.926,0,0,0-1.714-1.246l-.935-.623-.779.623c-.312.156-.468.467-.779.623-8.258,6.233-16.517,7.947-24.308,4.986A26.023,26.023,0,0,0,17.794,16.9c-.468.156-.935.311-1.558.467l-.312.156-.467.467c0,.156-.156.156-.312.312-.623.935-1.4,1.714-2.026,2.649l-2.961,4.519,4.83-2.493a5.446,5.446,0,0,0,1.87-.467Z" transform="translate(-7.511 -6.93)" fill="url(#linear-gradient)"/>
  <path id="Path_16" data-name="Path 16" d="M21.486,14.458l.467.156a25.534,25.534,0,0,0,9.037,1.558,31.645,31.645,0,0,0,11.842-2.493l4.83-2.337-3.272-1.091a16.439,16.439,0,0,0-2.96-.779h-.468l-.467.156c-.467.156-.935.467-1.4.623a22.366,22.366,0,0,1-13.868.779l-1.4-.467-.468-.156-.467.156a20.779,20.779,0,0,0-2.8,1.091L16.5,13.211l3.74,1.091A1.846,1.846,0,0,1,21.486,14.458Z" transform="translate(0.64 -9.471)" fill="url(#linear-gradient)"/>
</svg>
