<svg xmlns="http://www.w3.org/2000/svg" width="21.999" height="22" viewBox="0 0 21.999 22">
  <path id="activity-active-icon" d="M11.9,25a1.749,1.749,0,0,0-1.65-1.833A1.749,1.749,0,0,0,8.6,25H3.1A1.166,1.166,0,0,1,2,23.777V4.222A1.166,1.166,0,0,1,3.1,3H8.6a1.749,1.749,0,0,0,1.65,1.833A1.749,1.749,0,0,0,11.9,3h11A1.166,1.166,0,0,1,24,4.222v6.722A2.915,2.915,0,0,0,21.254,14,2.915,2.915,0,0,0,24,17.055v6.722A1.166,1.166,0,0,1,22.9,25Zm-1.65-12.833a1.749,1.749,0,0,0,1.65-1.833A1.749,1.749,0,0,0,10.254,8.5,1.749,1.749,0,0,0,8.6,10.333,1.749,1.749,0,0,0,10.254,12.166Zm0,7.333a1.844,1.844,0,0,0,0-3.667,1.844,1.844,0,0,0,0,3.667Z" transform="translate(-2.005 -3)" fill="#2e00a7"/>
</svg>
