<svg xmlns="http://www.w3.org/2000/svg" width="21.997" height="21.997" viewBox="0 0 21.997 21.997">
  <path id="activity-icon" d="M2,4.222A1.166,1.166,0,0,1,3.1,3H22.9A1.166,1.166,0,0,1,24,4.222v6.721A2.915,2.915,0,0,0,21.253,14,2.915,2.915,0,0,0,24,17.054v6.721A1.166,1.166,0,0,1,22.9,25H3.1A1.166,1.166,0,0,1,2,23.775ZM8.7,22.553a1.672,1.672,0,0,1,1.556-1.222,1.672,1.672,0,0,1,1.556,1.222H21.8V18.926A5.586,5.586,0,0,1,19.053,14,5.586,5.586,0,0,1,21.8,9.071V5.444H11.81a1.672,1.672,0,0,1-1.556,1.222A1.672,1.672,0,0,1,8.7,5.444H4.2V22.553Zm1.556-9.777A1.749,1.749,0,0,1,8.6,10.943a1.749,1.749,0,0,1,1.65-1.833,1.749,1.749,0,0,1,1.65,1.833A1.749,1.749,0,0,1,10.254,12.776Zm0,6.11A1.749,1.749,0,0,1,8.6,17.054a1.749,1.749,0,0,1,1.65-1.833,1.749,1.749,0,0,1,1.65,1.833A1.749,1.749,0,0,1,10.254,18.887Z" transform="translate(-2.005 -3)"/>
</svg>
