<svg xmlns="http://www.w3.org/2000/svg" width="22" height="21.734" viewBox="0 0 22 21.734">
  <g id="activity-active-icon" transform="translate(1507.999 -1865)">
    <path id="Path_9215" data-name="Path 9215" d="M19.2,9.258a1,1,0,0,1-.911-.586l-2.182-4.8a.05.05,0,0,0-.067-.024L4.931,9.16a1,1,0,1,1-.863-1.8L15.178,2.043a2.05,2.05,0,0,1,2.751,1l2.182,4.8a1,1,0,0,1-.91,1.414Z" transform="translate(-1508.874 1863.157)" fill="#2e00a7"/>
    <path id="Path_9216" data-name="Path 9216" d="M6,11.1a1,1,0,0,1-1-1V8A1,1,0,0,1,7,8v2.1A1,1,0,0,1,6,11.1Z" transform="translate(-1508.999 1863.629)"/>
    <path id="Path_9217" data-name="Path 9217" d="M6,16.05a1,1,0,0,1-1-1V14a1,1,0,0,1,2,0v1.05A1,1,0,0,1,6,16.05Z" transform="translate(-1508.999 1864.151)"/>
    <path id="Path_9218" data-name="Path 9218" d="M6,22.1a1,1,0,0,1-1-1V19a1,1,0,0,1,2,0v2.1A1,1,0,0,1,6,22.1Z" transform="translate(-1508.999 1864.635)"/>
    <path id="Rectangle_2913" data-name="Rectangle 2913" d="M2-1H18a3,3,0,0,1,3,3V12.319a3,3,0,0,1-3,3H2a3,3,0,0,1-3-3V2A3,3,0,0,1,2-1Z" transform="translate(-1506.999 1871.415)" fill="#2e00a7"/>
    <path id="Path_9217-2" data-name="Path 9217" d="M6,16.05a1,1,0,0,1-1-1V14a1,1,0,0,1,2,0v1.05A1,1,0,0,1,6,16.05Z" transform="translate(-1508.999 1864.151)" fill="#fff"/>
    <path id="Path_9218-2" data-name="Path 9218" d="M5,22.1V19a1,1,0,0,1,2,0v3.1Z" transform="translate(-1508.999 1864.635)" fill="#fff"/>
    <path id="Path_9218-3" data-name="Path 9218" d="M5,18v3.1a1,1,0,0,0,2,0V18Z" transform="translate(-1508.999 1852.616)" fill="#fff"/>
  </g>
</svg>
