<svg xmlns="http://www.w3.org/2000/svg" width="22" height="22" viewBox="0 0 22 22">
  <g id="discovery-icon" transform="translate(-0.55 -0.654)">
    <path id="Path_9191" data-name="Path 9191" d="M15.88,6.76a1,1,0,0,1,.949,1.316L15.1,13.258A2.929,2.929,0,0,1,13.258,15.1L8.076,16.829a1,1,0,0,1-1.265-1.265l1.727-5.182a2.929,2.929,0,0,1,1.844-1.844l5.181-1.727A1,1,0,0,1,15.88,6.76ZM9.341,14.3,12.625,13.2a.92.92,0,0,0,.579-.579L14.3,9.341l-3.284,1.095a.92.92,0,0,0-.579.579Z" transform="translate(-0.27 -0.166)"/>
    <path id="Ellipse_129" data-name="Ellipse 129" d="M10-1A11,11,0,0,1,21,10,11,11,0,0,1,10,21,11,11,0,0,1-1,10,11,11,0,0,1,10-1Zm0,20a9,9,0,1,0-9-9A9.01,9.01,0,0,0,10,19Z" transform="translate(1.55 1.654)"/>
  </g>
</svg>
