<svg xmlns="http://www.w3.org/2000/svg" width="20.945" height="22" viewBox="0 0 20.945 22">
  <path id="home-icon" d="M21.618,21.687V11.031L13.473,4.636,5.327,11.031V21.687Zm2.327,1.158A1.161,1.161,0,0,1,22.782,24H4.164A1.161,1.161,0,0,1,3,22.845V10.47a1.156,1.156,0,0,1,.443-.909l9.309-7.308a1.168,1.168,0,0,1,1.441,0L23.5,9.56a1.156,1.156,0,0,1,.443.909ZM7.807,13.58H9.422s2.123,3.474,4.051,3.474a3.483,3.483,0,0,0,3.491-3.474h2.327a5.8,5.8,0,0,1-5.818,5.79A5.675,5.675,0,0,1,7.807,13.58Z" transform="translate(-3 -2.003)"/>
</svg>
